<svg xmlns="http://www.w3.org/2000/svg" xmlns:xlink="http://www.w3.org/1999/xlink" width="26" height="26" viewBox="0 0 26 26"><defs><linearGradient id="linear-gradient" x1="0.5" x2="0.5" y2="1" gradientUnits="objectBoundingBox"><stop offset="0" stop-color="#5865f2"></stop><stop offset="1" stop-color="#8045dd"></stop></linearGradient></defs><g id="btn_footer_discord" transform="translate(-1427 -27)"><rect id="사각형_153" data-name="사각형 153" width="26" height="26" rx="6" transform="translate(1427 27)" fill="url(#linear-gradient)"></rect><g id="icon" transform="translate(1432 34)"><path id="패스_1" data-name="패스 1" d="M13.544,1.423A13.194,13.194,0,0,0,10.288.412a.05.05,0,0,0-.053.025,9.169,9.169,0,0,0-.405.833,12.181,12.181,0,0,0-3.658,0A8.4,8.4,0,0,0,5.76.437.052.052,0,0,0,5.708.412a13.164,13.164,0,0,0-3.257,1.01.046.046,0,0,0-.021.018A13.5,13.5,0,0,0,.066,10.548a.055.055,0,0,0,.021.038,13.273,13.273,0,0,0,4,2.02.052.052,0,0,0,.056-.018,9.5,9.5,0,0,0,.817-1.33.051.051,0,0,0-.028-.07,8.76,8.76,0,0,1-1.248-.595.051.051,0,0,1,0-.085c.084-.063.168-.128.248-.194a.049.049,0,0,1,.052-.007,9.462,9.462,0,0,0,8.041,0,.049.049,0,0,1,.052.006c.08.066.164.132.249.195a.051.051,0,0,1,0,.085,8.194,8.194,0,0,1-1.249.594.051.051,0,0,0-.027.071,10.63,10.63,0,0,0,.817,1.329.051.051,0,0,0,.056.019,13.232,13.232,0,0,0,4-2.02.051.051,0,0,0,.021-.037,13.414,13.414,0,0,0-2.366-9.107A.041.041,0,0,0,13.544,1.423ZM5.346,8.73A1.538,1.538,0,0,1,3.908,7.118,1.53,1.53,0,0,1,5.346,5.5,1.521,1.521,0,0,1,6.784,7.118,1.529,1.529,0,0,1,5.346,8.73Zm5.316,0A1.538,1.538,0,0,1,9.225,7.118,1.53,1.53,0,0,1,10.663,5.5,1.521,1.521,0,0,1,12.1,7.118,1.525,1.525,0,0,1,10.663,8.73Z" transform="translate(0 -0.412)" fill="#fff"></path></g></g></svg>