<svg xmlns="http://www.w3.org/2000/svg" width="32" height="48" viewBox="0 0 32 48" aria-label="3등">
  <g id="img_rank_3rd" transform="translate(-420 -118)">
  <path id="패스_147" data-name="패스 147" d="M-76.784,170.049c-1.841-2.622-4.686-3.952-8.457-3.952a13.207,13.207,0,0,0-9.62,3.877,16,16,0,0,0-4.394,8.514l-.668,3.388H-89.35l.542-2.757a5.168,5.168,0,0,1,.933-2.244,2.082,2.082,0,0,1,1.778-.827,1.545,1.545,0,0,1,.916.171s.257.354,0,1.651l-.2,1a7.557,7.557,0,0,1-2.116,4.207,6.378,6.378,0,0,1-4.594,1.534h-1.676l-1.892,9.574h2.472c1.183,0,2.733.169,3.4.967.635.762.519,2.19.31,3.254l-.5,2.534c-.3,1.514-.982,2.524-3.331,2.524-.646,0-.8-.191-.855-.263a1.456,1.456,0,0,1-.214-1.186l.409-3.905-10.32.782-.507,2.564a10.327,10.327,0,0,0,2,8.866,10.17,10.17,0,0,0,8.359,3.779,14.986,14.986,0,0,0,9.449-3.38,14.8,14.8,0,0,0,5.571-9.009l.67-3.392a10.5,10.5,0,0,0-.069-5.013,10.847,10.847,0,0,0-2.191-4.161c.33-.269.65-.551.957-.849a14.952,14.952,0,0,0,4.368-7.974l.358-1.816A10.606,10.606,0,0,0-76.784,170.049Z" transform="translate(526.043 -48.097)" fill="#fff">
  </path>
  <rect id="사각형_186" data-name="사각형 186" width="32" height="48" transform="translate(420 118)" fill="none">
  </rect>
  </g>
</svg>