<svg xmlns="http://www.w3.org/2000/svg" width="32" height="48" viewBox="0 0 32 48" aria-label="2등"><path id="img_rank_2nd" d="M-89.909,170.433a9.651,9.651,0,0,0-8.22-4.08,13.882,13.882,0,0,0-9.281,3.374c-2.962,2.493-4.91,6.1-5.789,10.713l-.684,3.6h10.446l.636-3.343a6.514,6.514,0,0,1,.64-1.912c1.161-2.132,2.266-2.132,2.682-2.132.722,0,.943.259,1.081.476a2.749,2.749,0,0,1,.2,1.943,14.1,14.1,0,0,1-1.934,4.585,55.342,55.342,0,0,1-5.7,7.452c-2.67,3.027-4.621,5.226-5.889,6.631l-2.152,2.491c-.71.825-1.35,1.581-1.909,2.257-2.116,2.515-2.232,2.772-2.345,3.362l-1.617,8.5h24.634l2.012-10.575-10.949-.031,1.49-1.772q2.681-3.228,4.019-4.75A84.7,84.7,0,0,0-91.9,189.05a25.922,25.922,0,0,0,3.9-9.4A11.439,11.439,0,0,0-89.909,170.433Z" transform="translate(119.75 -166.353)" fill="#fff"></path></svg>