<svg width="12.068" height="12.068" xmlns="http://www.w3.org/2000/svg" viewBox="0 0 12.068 12.068">
<g>
<path d="M-2081.271-1376.571a.739.739 0 0 0-.459-.24 3.504 3.504 0 0 0-.268-.034v.01-.011c-.044 0-.087-.006-.131-.006l-.107.023a.58.58 0 0 1 .046.038.729.729 0 0 0-.274.169c-.209.2-.379.432-.586.635-.455.447-.864 1.1-1.461 1.364-.575.253-1.189.053-1.785.159a2.337 2.337 0 0 0-1.77 1.85 2.959 2.959 0 0 0 .225 1.99 2.459 2.459 0 0 0 1.579 1.239 3.679 3.679 0 0 0 1.727.111 3.752 3.752 0 0 0 2.059-1.07 5.171 5.171 0 0 0 1.137-2.291 8.1 8.1 0 0 0 .27-2.013 11.58 11.58 0 0 0-.029-1.021 1.659 1.659 0 0 0-.173-.902z" transform="translate(2088.146 1381.289)" style="fill: rgb(189, 218, 135);"></path>
<path d="M-2044.22-1517.02c.07-.09.149-.184.238-.282a5.853 5.853 0 0 1 1.416-1.066c.693-.417 1.408-.727 2.065-1.215.38-.282.713-.621 1.066-.936.258-.229.531-.442.8-.66a7.112 7.112 0 0 1-.823-.1c-.367-.065-.719-.17-1.092-.2a3.891 3.891 0 0 0-1.829.229 3.619 3.619 0 0 0-1.982 2.416 4.8 4.8 0 0 0-.142 1.381c0 .149.009.286.018.408a4.258 4.258 0 0 0-.158-.4 2.614 2.614 0 0 0-.5-.788q-.07-.074-.146-.143a2.464 2.464 0 0 0-2.491-.459 2.507 2.507 0 0 0-.613.444c-.161.146-.293.318-.449.468a3.789 3.789 0 0 1-.611.478 3.007 3.007 0 0 1 1.126 0c.3.077.587.208.889.283a3.061 3.061 0 0 0 .935.083 9.686 9.686 0 0 1 1.13-.1 1.213 1.213 0 0 1 .584.106.654.654 0 0 1 .1.077" transform="translate(2050.637 1521.498)"
style="fill: rgb(122, 177, 49); mix-blend-mode: multiply; isolation: isolate;"></path>
</g>
</svg>