<svg xmlns="http://www.w3.org/2000/svg" viewBox="0 0 100 100" width="100" height="100" class="w-4 h-4 fill-yellow-500" fill='#eab308'>
  <g>
    <g transform="matrix(0.5410000085830688,0,0,0.5410000085830688,43.5,51)">
      <g transform="matrix(1,0,0,1,0,0)">
        <g transform="matrix(-1.0082499980926514,0,0,1,22.5,-0.25)">
          <path d=" M-38.25,33 C-38.25,33 -75.6989974975586,33 -75.6989974975586,33 C-75.6989974975586,33 -75.70099639892578,47.5 -75.70099639892578,47.5 C-75.70099639892578,47.5 -48.25,70.25 -48.25,70.25 C-48.25,70.25 -15.5,70.25 -15.5,70.25 C-15.5,70.25 -15.5,55.75 -15.5,55.75 C-15.5,55.75 -38.25,33 -38.25,33z"></path>
        </g>
        <path d=" M-38.25,33 C-38.25,33 -75.5,33 -75.5,33 C-75.5,33 -74.75,47.25 -74.75,47.25 C-74.75,47.25 -48.25,70.25 -48.25,70.25 C-48.25,70.25 -15.5,70.25 -15.5,70.25 C-15.5,70.25 -15.5,55.75 -15.5,55.75 C-15.5,55.75 -38.25,33 -38.25,33z"></path>
      </g>
      <g transform="matrix(1,0,0,1,0,0)">
        <g transform="matrix(-1.0065200328826904,0,0,1,24.25,0)">
          <path d=" M-47.5099983215332,-29 C-47.5099983215332,-29 -47.26300048828125,3.25 -47.26300048828125,3.25 C-47.26300048828125,3.25 4.755000114440918,48.5 4.755000114440918,48.5 C4.755000114440918,48.5 4.507999897003174,14.75 4.507999897003174,14.75 C4.507999897003174,14.75 -47.5099983215332,-29 -47.5099983215332,-29z"></path>
        </g>
        <path d=" M-48.75,-29 C-48.75,-29 -48.5,3.25 -48.5,3.25 C-48.5,3.25 5.5,48 5.5,48 C5.5,48 5.75,15 5.75,15 C5.75,15 -48.75,-29 -48.75,-29z"></path>
      </g>
      <g transform="matrix(0.7857099771499634,0,0,1,2.25,0)">
        <path d=" M12.25,-73.25 C6.999000072479248,-73.46900177001953 -9.75,-51.0099983215332 -9.75,-38 C-9.75,-24 3.503999948501587,-3.75 12,-3.5 C20.5,-3.25 34.75,-23.75 34.5,-36.75 C34.28799819946289,-47.74800109863281 18.25,-73 12.25,-73.25z"></path>
      </g>
    </g>
  </g>
</svg>